<mxfile host="app.diagrams.net" modified="2023-04-10T09:32:08.061Z" agent="Mozilla/5.0 (Macintosh; Intel Mac OS X 10_15_7) AppleWebKit/537.36 (KHTML, like Gecko) Chrome/111.0.0.0 Safari/537.36" etag="on81eQMCScZFVrKXLpl5" version="21.1.2" type="device">
  <diagram name="Page-1" id="2YBvvXClWsGukQMizWep">
    <mxGraphModel dx="1486" dy="300" grid="1" gridSize="10" guides="1" tooltips="1" connect="1" arrows="1" fold="1" page="1" pageScale="1" pageWidth="850" pageHeight="1100" math="0" shadow="0">
      <root>
        <mxCell id="0" />
        <mxCell id="1" parent="0" />
        <mxCell id="aM9ryv3xv72pqoxQDRHE-1" value="TransactionCommand" style="shape=umlLifeline;perimeter=lifelinePerimeter;whiteSpace=wrap;html=1;container=0;dropTarget=0;collapsible=0;recursiveResize=0;outlineConnect=0;portConstraint=eastwest;newEdgeStyle={&quot;edgeStyle&quot;:&quot;elbowEdgeStyle&quot;,&quot;elbow&quot;:&quot;vertical&quot;,&quot;curved&quot;:0,&quot;rounded&quot;:0};" parent="1" vertex="1">
          <mxGeometry x="110" y="30" width="130" height="1160" as="geometry" />
        </mxCell>
        <mxCell id="aM9ryv3xv72pqoxQDRHE-2" value="" style="html=1;points=[];perimeter=orthogonalPerimeter;outlineConnect=0;targetShapes=umlLifeline;portConstraint=eastwest;newEdgeStyle={&quot;edgeStyle&quot;:&quot;elbowEdgeStyle&quot;,&quot;elbow&quot;:&quot;vertical&quot;,&quot;curved&quot;:0,&quot;rounded&quot;:0};" parent="aM9ryv3xv72pqoxQDRHE-1" vertex="1">
          <mxGeometry x="60" y="70" width="10" height="1050" as="geometry" />
        </mxCell>
        <mxCell id="aM9ryv3xv72pqoxQDRHE-3" value="execute(:UI, :AccountList)" style="html=1;verticalAlign=bottom;startArrow=oval;endArrow=block;startSize=8;edgeStyle=elbowEdgeStyle;elbow=vertical;curved=0;rounded=0;" parent="aM9ryv3xv72pqoxQDRHE-1" target="aM9ryv3xv72pqoxQDRHE-2" edge="1">
          <mxGeometry relative="1" as="geometry">
            <mxPoint x="-190" y="70" as="sourcePoint" />
          </mxGeometry>
        </mxCell>
        <mxCell id="aM9ryv3xv72pqoxQDRHE-5" value=":UI" style="shape=umlLifeline;perimeter=lifelinePerimeter;whiteSpace=wrap;html=1;container=0;dropTarget=0;collapsible=0;recursiveResize=0;outlineConnect=0;portConstraint=eastwest;newEdgeStyle={&quot;edgeStyle&quot;:&quot;elbowEdgeStyle&quot;,&quot;elbow&quot;:&quot;vertical&quot;,&quot;curved&quot;:0,&quot;rounded&quot;:0};" parent="1" vertex="1">
          <mxGeometry x="465" y="30" width="100" height="1160" as="geometry" />
        </mxCell>
        <mxCell id="a20nSgyE2VclxuOLMxw--1" value="alt" style="shape=umlFrame;whiteSpace=wrap;html=1;pointerEvents=0;" parent="1" vertex="1">
          <mxGeometry x="-50" y="120" width="700" height="1010" as="geometry" />
        </mxCell>
        <mxCell id="a20nSgyE2VclxuOLMxw--4" value="" style="endArrow=none;dashed=1;html=1;rounded=0;entryX=0.002;entryY=0.889;entryDx=0;entryDy=0;entryPerimeter=0;exitX=1.003;exitY=0.892;exitDx=0;exitDy=0;exitPerimeter=0;" parent="1" source="a20nSgyE2VclxuOLMxw--1" target="a20nSgyE2VclxuOLMxw--1" edge="1">
          <mxGeometry width="50" height="50" relative="1" as="geometry">
            <mxPoint x="820" y="280" as="sourcePoint" />
            <mxPoint x="450" y="230" as="targetPoint" />
          </mxGeometry>
        </mxCell>
        <mxCell id="a20nSgyE2VclxuOLMxw--5" value="[No Exceptions]" style="text;html=1;align=center;verticalAlign=middle;resizable=0;points=[];autosize=1;strokeColor=none;fillColor=none;" parent="1" vertex="1">
          <mxGeometry x="-60" y="155" width="110" height="30" as="geometry" />
        </mxCell>
        <mxCell id="a20nSgyE2VclxuOLMxw--6" value="[Exception]" style="text;html=1;align=center;verticalAlign=middle;resizable=0;points=[];autosize=1;strokeColor=none;fillColor=none;" parent="1" vertex="1">
          <mxGeometry x="-44" y="1040" width="80" height="30" as="geometry" />
        </mxCell>
        <mxCell id="a20nSgyE2VclxuOLMxw--10" value="alt" style="shape=umlFrame;whiteSpace=wrap;html=1;pointerEvents=0;" parent="1" vertex="1">
          <mxGeometry x="40" y="130" width="580" height="870" as="geometry" />
        </mxCell>
        <mxCell id="a20nSgyE2VclxuOLMxw--11" value="[args.length == 1]" style="text;html=1;align=center;verticalAlign=middle;resizable=0;points=[];autosize=1;strokeColor=none;fillColor=none;" parent="1" vertex="1">
          <mxGeometry x="40" y="165" width="120" height="30" as="geometry" />
        </mxCell>
        <mxCell id="a20nSgyE2VclxuOLMxw--12" value="" style="endArrow=none;dashed=1;html=1;rounded=0;entryX=-0.003;entryY=0.404;entryDx=0;entryDy=0;entryPerimeter=0;exitX=0.999;exitY=0.402;exitDx=0;exitDy=0;exitPerimeter=0;" parent="1" source="a20nSgyE2VclxuOLMxw--10" target="a20nSgyE2VclxuOLMxw--10" edge="1">
          <mxGeometry width="50" height="50" relative="1" as="geometry">
            <mxPoint x="929" y="372" as="sourcePoint" />
            <mxPoint x="-39" y="373" as="targetPoint" />
          </mxGeometry>
        </mxCell>
        <mxCell id="a20nSgyE2VclxuOLMxw--23" style="edgeStyle=elbowEdgeStyle;rounded=0;orthogonalLoop=1;jettySize=auto;html=1;elbow=vertical;curved=0;" parent="1" source="a20nSgyE2VclxuOLMxw--13" target="a20nSgyE2VclxuOLMxw--22" edge="1">
          <mxGeometry relative="1" as="geometry">
            <Array as="points">
              <mxPoint x="200" y="170" />
              <mxPoint x="300" y="160" />
              <mxPoint x="200" y="160" />
            </Array>
          </mxGeometry>
        </mxCell>
        <mxCell id="a20nSgyE2VclxuOLMxw--24" value="getAllTransactionsString()" style="edgeLabel;html=1;align=center;verticalAlign=middle;resizable=0;points=[];" parent="a20nSgyE2VclxuOLMxw--23" vertex="1" connectable="0">
          <mxGeometry x="0.0561" relative="1" as="geometry">
            <mxPoint x="11" y="-10" as="offset" />
          </mxGeometry>
        </mxCell>
        <mxCell id="a20nSgyE2VclxuOLMxw--13" value="" style="html=1;points=[];perimeter=orthogonalPerimeter;outlineConnect=0;targetShapes=umlLifeline;portConstraint=eastwest;newEdgeStyle={&quot;edgeStyle&quot;:&quot;elbowEdgeStyle&quot;,&quot;elbow&quot;:&quot;vertical&quot;,&quot;curved&quot;:0,&quot;rounded&quot;:0};" parent="1" vertex="1">
          <mxGeometry x="176" y="160" width="10" height="90" as="geometry" />
        </mxCell>
        <mxCell id="a20nSgyE2VclxuOLMxw--15" value="printAllTransactions(:Ui)" style="endArrow=classic;html=1;rounded=0;" parent="1" source="aM9ryv3xv72pqoxQDRHE-2" target="a20nSgyE2VclxuOLMxw--13" edge="1">
          <mxGeometry x="-0.1892" y="70" width="50" height="50" relative="1" as="geometry">
            <mxPoint x="400" y="320" as="sourcePoint" />
            <mxPoint x="450" y="270" as="targetPoint" />
            <Array as="points">
              <mxPoint x="210" y="140" />
              <mxPoint x="210" y="160" />
            </Array>
            <mxPoint as="offset" />
          </mxGeometry>
        </mxCell>
        <mxCell id="a20nSgyE2VclxuOLMxw--21" value=":TransactionManager" style="shape=umlLifeline;perimeter=lifelinePerimeter;whiteSpace=wrap;html=1;container=0;dropTarget=0;collapsible=0;recursiveResize=0;outlineConnect=0;portConstraint=eastwest;newEdgeStyle={&quot;edgeStyle&quot;:&quot;elbowEdgeStyle&quot;,&quot;elbow&quot;:&quot;vertical&quot;,&quot;curved&quot;:0,&quot;rounded&quot;:0};" parent="1" vertex="1">
          <mxGeometry x="300" y="30" width="140" height="1160" as="geometry" />
        </mxCell>
        <mxCell id="a20nSgyE2VclxuOLMxw--22" value="" style="html=1;points=[];perimeter=orthogonalPerimeter;outlineConnect=0;targetShapes=umlLifeline;portConstraint=eastwest;newEdgeStyle={&quot;edgeStyle&quot;:&quot;elbowEdgeStyle&quot;,&quot;elbow&quot;:&quot;vertical&quot;,&quot;curved&quot;:0,&quot;rounded&quot;:0};" parent="a20nSgyE2VclxuOLMxw--21" vertex="1">
          <mxGeometry x="65" y="137.5" width="10" height="29.5" as="geometry" />
        </mxCell>
        <mxCell id="a20nSgyE2VclxuOLMxw--45" value="" style="html=1;points=[];perimeter=orthogonalPerimeter;outlineConnect=0;targetShapes=umlLifeline;portConstraint=eastwest;newEdgeStyle={&quot;edgeStyle&quot;:&quot;elbowEdgeStyle&quot;,&quot;elbow&quot;:&quot;vertical&quot;,&quot;curved&quot;:0,&quot;rounded&quot;:0};" parent="a20nSgyE2VclxuOLMxw--21" vertex="1">
          <mxGeometry x="65" y="327.5" width="10" height="29.5" as="geometry" />
        </mxCell>
        <mxCell id="a20nSgyE2VclxuOLMxw--25" value="" style="html=1;verticalAlign=bottom;endArrow=open;dashed=1;endSize=8;edgeStyle=elbowEdgeStyle;elbow=vertical;curved=0;rounded=0;" parent="1" source="a20nSgyE2VclxuOLMxw--22" edge="1">
          <mxGeometry x="0.1831" relative="1" as="geometry">
            <mxPoint x="266" y="195" as="sourcePoint" />
            <mxPoint x="186" y="196" as="targetPoint" />
            <Array as="points">
              <mxPoint x="260" y="196" />
              <mxPoint x="280" y="196" />
              <mxPoint x="220" y="180" />
            </Array>
            <mxPoint as="offset" />
          </mxGeometry>
        </mxCell>
        <mxCell id="a20nSgyE2VclxuOLMxw--26" style="edgeStyle=elbowEdgeStyle;rounded=0;orthogonalLoop=1;jettySize=auto;html=1;elbow=vertical;curved=0;" parent="1" target="a20nSgyE2VclxuOLMxw--28" edge="1">
          <mxGeometry relative="1" as="geometry">
            <mxPoint x="186" y="220" as="sourcePoint" />
            <mxPoint x="365" y="220" as="targetPoint" />
            <Array as="points">
              <mxPoint x="200" y="220" />
              <mxPoint x="300" y="210" />
              <mxPoint x="200" y="210" />
            </Array>
          </mxGeometry>
        </mxCell>
        <mxCell id="a20nSgyE2VclxuOLMxw--27" value="printMessage(:String)" style="edgeLabel;html=1;align=center;verticalAlign=middle;resizable=0;points=[];" parent="a20nSgyE2VclxuOLMxw--26" vertex="1" connectable="0">
          <mxGeometry x="0.0561" relative="1" as="geometry">
            <mxPoint x="11" y="-10" as="offset" />
          </mxGeometry>
        </mxCell>
        <mxCell id="a20nSgyE2VclxuOLMxw--28" value="" style="html=1;points=[];perimeter=orthogonalPerimeter;outlineConnect=0;targetShapes=umlLifeline;portConstraint=eastwest;newEdgeStyle={&quot;edgeStyle&quot;:&quot;elbowEdgeStyle&quot;,&quot;elbow&quot;:&quot;vertical&quot;,&quot;curved&quot;:0,&quot;rounded&quot;:0};" parent="1" vertex="1">
          <mxGeometry x="510" y="220" width="10" height="10" as="geometry" />
        </mxCell>
        <mxCell id="a20nSgyE2VclxuOLMxw--29" value="" style="html=1;verticalAlign=bottom;endArrow=open;dashed=1;endSize=8;edgeStyle=elbowEdgeStyle;elbow=vertical;curved=0;rounded=0;" parent="1" source="a20nSgyE2VclxuOLMxw--28" edge="1">
          <mxGeometry x="0.1831" relative="1" as="geometry">
            <mxPoint x="365" y="240" as="sourcePoint" />
            <mxPoint x="186" y="230" as="targetPoint" />
            <Array as="points">
              <mxPoint x="250" y="230" />
              <mxPoint x="260" y="240" />
              <mxPoint x="280" y="240" />
              <mxPoint x="220" y="224" />
            </Array>
            <mxPoint as="offset" />
          </mxGeometry>
        </mxCell>
        <mxCell id="a20nSgyE2VclxuOLMxw--31" value="[flag == DESC_FLAG]" style="text;html=1;align=center;verticalAlign=middle;resizable=0;points=[];autosize=1;strokeColor=none;fillColor=none;" parent="1" vertex="1">
          <mxGeometry x="30" y="325" width="140" height="30" as="geometry" />
        </mxCell>
        <mxCell id="a20nSgyE2VclxuOLMxw--46" style="edgeStyle=elbowEdgeStyle;rounded=0;orthogonalLoop=1;jettySize=auto;html=1;elbow=vertical;curved=0;" parent="1" source="a20nSgyE2VclxuOLMxw--49" target="a20nSgyE2VclxuOLMxw--45" edge="1">
          <mxGeometry relative="1" as="geometry">
            <Array as="points">
              <mxPoint x="200" y="360" />
              <mxPoint x="300" y="350" />
              <mxPoint x="200" y="350" />
            </Array>
          </mxGeometry>
        </mxCell>
        <mxCell id="a20nSgyE2VclxuOLMxw--47" value="getAllTransactionsOfDesc()" style="edgeLabel;html=1;align=center;verticalAlign=middle;resizable=0;points=[];" parent="a20nSgyE2VclxuOLMxw--46" vertex="1" connectable="0">
          <mxGeometry x="0.0561" relative="1" as="geometry">
            <mxPoint x="11" y="-10" as="offset" />
          </mxGeometry>
        </mxCell>
        <mxCell id="a20nSgyE2VclxuOLMxw--48" value="" style="endArrow=classic;html=1;rounded=0;" parent="1" target="a20nSgyE2VclxuOLMxw--49" edge="1">
          <mxGeometry width="50" height="50" relative="1" as="geometry">
            <mxPoint x="180" y="330" as="sourcePoint" />
            <mxPoint x="450" y="460" as="targetPoint" />
            <Array as="points">
              <mxPoint x="210" y="330" />
              <mxPoint x="210" y="350" />
            </Array>
          </mxGeometry>
        </mxCell>
        <mxCell id="a20nSgyE2VclxuOLMxw--49" value="" style="html=1;points=[];perimeter=orthogonalPerimeter;outlineConnect=0;targetShapes=umlLifeline;portConstraint=eastwest;newEdgeStyle={&quot;edgeStyle&quot;:&quot;elbowEdgeStyle&quot;,&quot;elbow&quot;:&quot;vertical&quot;,&quot;curved&quot;:0,&quot;rounded&quot;:0};" parent="1" vertex="1">
          <mxGeometry x="176" y="350" width="10" height="90" as="geometry" />
        </mxCell>
        <mxCell id="a20nSgyE2VclxuOLMxw--50" value="" style="html=1;verticalAlign=bottom;endArrow=open;dashed=1;endSize=8;edgeStyle=elbowEdgeStyle;elbow=vertical;curved=0;rounded=0;" parent="1" source="a20nSgyE2VclxuOLMxw--45" edge="1">
          <mxGeometry x="0.1831" relative="1" as="geometry">
            <mxPoint x="266" y="385" as="sourcePoint" />
            <mxPoint x="186" y="386" as="targetPoint" />
            <Array as="points">
              <mxPoint x="260" y="386" />
              <mxPoint x="280" y="386" />
              <mxPoint x="220" y="370" />
            </Array>
            <mxPoint as="offset" />
          </mxGeometry>
        </mxCell>
        <mxCell id="a20nSgyE2VclxuOLMxw--51" style="edgeStyle=elbowEdgeStyle;rounded=0;orthogonalLoop=1;jettySize=auto;html=1;elbow=vertical;curved=0;" parent="1" edge="1">
          <mxGeometry relative="1" as="geometry">
            <mxPoint x="186" y="410" as="sourcePoint" />
            <mxPoint x="510" y="410" as="targetPoint" />
            <Array as="points">
              <mxPoint x="200" y="410" />
              <mxPoint x="300" y="400" />
              <mxPoint x="200" y="400" />
            </Array>
          </mxGeometry>
        </mxCell>
        <mxCell id="a20nSgyE2VclxuOLMxw--52" value="printMessage(:String)" style="edgeLabel;html=1;align=center;verticalAlign=middle;resizable=0;points=[];" parent="a20nSgyE2VclxuOLMxw--51" vertex="1" connectable="0">
          <mxGeometry x="0.0561" relative="1" as="geometry">
            <mxPoint x="11" y="-10" as="offset" />
          </mxGeometry>
        </mxCell>
        <mxCell id="a20nSgyE2VclxuOLMxw--53" value="" style="html=1;verticalAlign=bottom;endArrow=open;dashed=1;endSize=8;edgeStyle=elbowEdgeStyle;elbow=vertical;curved=0;rounded=0;" parent="1" edge="1">
          <mxGeometry x="0.1831" relative="1" as="geometry">
            <mxPoint x="510" y="420" as="sourcePoint" />
            <mxPoint x="186" y="420" as="targetPoint" />
            <Array as="points">
              <mxPoint x="250" y="420" />
              <mxPoint x="260" y="430" />
              <mxPoint x="280" y="430" />
              <mxPoint x="220" y="414" />
            </Array>
            <mxPoint as="offset" />
          </mxGeometry>
        </mxCell>
        <mxCell id="a20nSgyE2VclxuOLMxw--55" value="" style="html=1;points=[];perimeter=orthogonalPerimeter;outlineConnect=0;targetShapes=umlLifeline;portConstraint=eastwest;newEdgeStyle={&quot;edgeStyle&quot;:&quot;elbowEdgeStyle&quot;,&quot;elbow&quot;:&quot;vertical&quot;,&quot;curved&quot;:0,&quot;rounded&quot;:0};" parent="1" vertex="1">
          <mxGeometry x="510" y="410" width="10" height="10" as="geometry" />
        </mxCell>
        <mxCell id="a20nSgyE2VclxuOLMxw--66" value="" style="html=1;points=[];perimeter=orthogonalPerimeter;outlineConnect=0;targetShapes=umlLifeline;portConstraint=eastwest;newEdgeStyle={&quot;edgeStyle&quot;:&quot;elbowEdgeStyle&quot;,&quot;elbow&quot;:&quot;vertical&quot;,&quot;curved&quot;:0,&quot;rounded&quot;:0};" parent="1" vertex="1">
          <mxGeometry x="365" y="517.5" width="10" height="29.5" as="geometry" />
        </mxCell>
        <mxCell id="a20nSgyE2VclxuOLMxw--67" style="edgeStyle=elbowEdgeStyle;rounded=0;orthogonalLoop=1;jettySize=auto;html=1;elbow=vertical;curved=0;" parent="1" source="a20nSgyE2VclxuOLMxw--70" target="a20nSgyE2VclxuOLMxw--66" edge="1">
          <mxGeometry relative="1" as="geometry">
            <Array as="points">
              <mxPoint x="200" y="520" />
              <mxPoint x="300" y="510" />
              <mxPoint x="200" y="510" />
            </Array>
          </mxGeometry>
        </mxCell>
        <mxCell id="a20nSgyE2VclxuOLMxw--68" value="getAllTransactionsOfCurrency()" style="edgeLabel;html=1;align=center;verticalAlign=middle;resizable=0;points=[];" parent="a20nSgyE2VclxuOLMxw--67" vertex="1" connectable="0">
          <mxGeometry x="0.0561" relative="1" as="geometry">
            <mxPoint x="11" y="-10" as="offset" />
          </mxGeometry>
        </mxCell>
        <mxCell id="a20nSgyE2VclxuOLMxw--69" value="" style="endArrow=classic;html=1;rounded=0;" parent="1" target="a20nSgyE2VclxuOLMxw--70" edge="1">
          <mxGeometry width="50" height="50" relative="1" as="geometry">
            <mxPoint x="180" y="490" as="sourcePoint" />
            <mxPoint x="450" y="620" as="targetPoint" />
            <Array as="points">
              <mxPoint x="210" y="490" />
              <mxPoint x="210" y="510" />
            </Array>
          </mxGeometry>
        </mxCell>
        <mxCell id="a20nSgyE2VclxuOLMxw--70" value="" style="html=1;points=[];perimeter=orthogonalPerimeter;outlineConnect=0;targetShapes=umlLifeline;portConstraint=eastwest;newEdgeStyle={&quot;edgeStyle&quot;:&quot;elbowEdgeStyle&quot;,&quot;elbow&quot;:&quot;vertical&quot;,&quot;curved&quot;:0,&quot;rounded&quot;:0};" parent="1" vertex="1">
          <mxGeometry x="176" y="510" width="10" height="90" as="geometry" />
        </mxCell>
        <mxCell id="a20nSgyE2VclxuOLMxw--71" value="" style="html=1;verticalAlign=bottom;endArrow=open;dashed=1;endSize=8;edgeStyle=elbowEdgeStyle;elbow=vertical;curved=0;rounded=0;" parent="1" source="a20nSgyE2VclxuOLMxw--66" edge="1">
          <mxGeometry x="0.1831" relative="1" as="geometry">
            <mxPoint x="266" y="545" as="sourcePoint" />
            <mxPoint x="186" y="546" as="targetPoint" />
            <Array as="points">
              <mxPoint x="260" y="546" />
              <mxPoint x="280" y="546" />
              <mxPoint x="220" y="530" />
            </Array>
            <mxPoint as="offset" />
          </mxGeometry>
        </mxCell>
        <mxCell id="a20nSgyE2VclxuOLMxw--72" style="edgeStyle=elbowEdgeStyle;rounded=0;orthogonalLoop=1;jettySize=auto;html=1;elbow=vertical;curved=0;" parent="1" edge="1">
          <mxGeometry relative="1" as="geometry">
            <mxPoint x="186" y="570" as="sourcePoint" />
            <mxPoint x="510" y="570" as="targetPoint" />
            <Array as="points">
              <mxPoint x="200" y="570" />
              <mxPoint x="300" y="560" />
              <mxPoint x="200" y="560" />
            </Array>
          </mxGeometry>
        </mxCell>
        <mxCell id="a20nSgyE2VclxuOLMxw--73" value="printMessage(:String)" style="edgeLabel;html=1;align=center;verticalAlign=middle;resizable=0;points=[];" parent="a20nSgyE2VclxuOLMxw--72" vertex="1" connectable="0">
          <mxGeometry x="0.0561" relative="1" as="geometry">
            <mxPoint x="11" y="-10" as="offset" />
          </mxGeometry>
        </mxCell>
        <mxCell id="a20nSgyE2VclxuOLMxw--74" value="" style="html=1;verticalAlign=bottom;endArrow=open;dashed=1;endSize=8;edgeStyle=elbowEdgeStyle;elbow=vertical;curved=0;rounded=0;" parent="1" edge="1">
          <mxGeometry x="0.1831" relative="1" as="geometry">
            <mxPoint x="510" y="580" as="sourcePoint" />
            <mxPoint x="186" y="580" as="targetPoint" />
            <Array as="points">
              <mxPoint x="250" y="580" />
              <mxPoint x="260" y="590" />
              <mxPoint x="280" y="590" />
              <mxPoint x="220" y="574" />
            </Array>
            <mxPoint as="offset" />
          </mxGeometry>
        </mxCell>
        <mxCell id="a20nSgyE2VclxuOLMxw--76" value="" style="html=1;points=[];perimeter=orthogonalPerimeter;outlineConnect=0;targetShapes=umlLifeline;portConstraint=eastwest;newEdgeStyle={&quot;edgeStyle&quot;:&quot;elbowEdgeStyle&quot;,&quot;elbow&quot;:&quot;vertical&quot;,&quot;curved&quot;:0,&quot;rounded&quot;:0};" parent="1" vertex="1">
          <mxGeometry x="510" y="570" width="10" height="10" as="geometry" />
        </mxCell>
        <mxCell id="a20nSgyE2VclxuOLMxw--77" value="" style="html=1;points=[];perimeter=orthogonalPerimeter;outlineConnect=0;targetShapes=umlLifeline;portConstraint=eastwest;newEdgeStyle={&quot;edgeStyle&quot;:&quot;elbowEdgeStyle&quot;,&quot;elbow&quot;:&quot;vertical&quot;,&quot;curved&quot;:0,&quot;rounded&quot;:0};" parent="1" vertex="1">
          <mxGeometry x="365" y="677.5" width="10" height="29.5" as="geometry" />
        </mxCell>
        <mxCell id="a20nSgyE2VclxuOLMxw--78" style="edgeStyle=elbowEdgeStyle;rounded=0;orthogonalLoop=1;jettySize=auto;html=1;elbow=vertical;curved=0;" parent="1" source="a20nSgyE2VclxuOLMxw--81" target="a20nSgyE2VclxuOLMxw--77" edge="1">
          <mxGeometry relative="1" as="geometry">
            <Array as="points">
              <mxPoint x="200" y="680" />
              <mxPoint x="300" y="670" />
              <mxPoint x="200" y="670" />
            </Array>
          </mxGeometry>
        </mxCell>
        <mxCell id="a20nSgyE2VclxuOLMxw--79" value="getAllTransactionsOfDate()" style="edgeLabel;html=1;align=center;verticalAlign=middle;resizable=0;points=[];" parent="a20nSgyE2VclxuOLMxw--78" vertex="1" connectable="0">
          <mxGeometry x="0.0561" relative="1" as="geometry">
            <mxPoint x="11" y="-10" as="offset" />
          </mxGeometry>
        </mxCell>
        <mxCell id="a20nSgyE2VclxuOLMxw--80" value="" style="endArrow=classic;html=1;rounded=0;" parent="1" target="a20nSgyE2VclxuOLMxw--81" edge="1">
          <mxGeometry width="50" height="50" relative="1" as="geometry">
            <mxPoint x="180" y="650" as="sourcePoint" />
            <mxPoint x="450" y="780" as="targetPoint" />
            <Array as="points">
              <mxPoint x="210" y="650" />
              <mxPoint x="210" y="670" />
            </Array>
          </mxGeometry>
        </mxCell>
        <mxCell id="a20nSgyE2VclxuOLMxw--81" value="" style="html=1;points=[];perimeter=orthogonalPerimeter;outlineConnect=0;targetShapes=umlLifeline;portConstraint=eastwest;newEdgeStyle={&quot;edgeStyle&quot;:&quot;elbowEdgeStyle&quot;,&quot;elbow&quot;:&quot;vertical&quot;,&quot;curved&quot;:0,&quot;rounded&quot;:0};" parent="1" vertex="1">
          <mxGeometry x="176" y="670" width="10" height="90" as="geometry" />
        </mxCell>
        <mxCell id="a20nSgyE2VclxuOLMxw--82" value="" style="html=1;verticalAlign=bottom;endArrow=open;dashed=1;endSize=8;edgeStyle=elbowEdgeStyle;elbow=vertical;curved=0;rounded=0;" parent="1" source="a20nSgyE2VclxuOLMxw--77" edge="1">
          <mxGeometry x="0.1831" relative="1" as="geometry">
            <mxPoint x="266" y="705" as="sourcePoint" />
            <mxPoint x="186" y="706" as="targetPoint" />
            <Array as="points">
              <mxPoint x="260" y="706" />
              <mxPoint x="280" y="706" />
              <mxPoint x="220" y="690" />
            </Array>
            <mxPoint as="offset" />
          </mxGeometry>
        </mxCell>
        <mxCell id="a20nSgyE2VclxuOLMxw--83" style="edgeStyle=elbowEdgeStyle;rounded=0;orthogonalLoop=1;jettySize=auto;html=1;elbow=vertical;curved=0;" parent="1" edge="1">
          <mxGeometry relative="1" as="geometry">
            <mxPoint x="186" y="730" as="sourcePoint" />
            <mxPoint x="510" y="730" as="targetPoint" />
            <Array as="points">
              <mxPoint x="200" y="730" />
              <mxPoint x="300" y="720" />
              <mxPoint x="200" y="720" />
            </Array>
          </mxGeometry>
        </mxCell>
        <mxCell id="a20nSgyE2VclxuOLMxw--84" value="printMessage(:String)" style="edgeLabel;html=1;align=center;verticalAlign=middle;resizable=0;points=[];" parent="a20nSgyE2VclxuOLMxw--83" vertex="1" connectable="0">
          <mxGeometry x="0.0561" relative="1" as="geometry">
            <mxPoint x="11" y="-10" as="offset" />
          </mxGeometry>
        </mxCell>
        <mxCell id="a20nSgyE2VclxuOLMxw--85" value="" style="html=1;verticalAlign=bottom;endArrow=open;dashed=1;endSize=8;edgeStyle=elbowEdgeStyle;elbow=vertical;curved=0;rounded=0;" parent="1" edge="1">
          <mxGeometry x="0.1831" relative="1" as="geometry">
            <mxPoint x="510" y="740" as="sourcePoint" />
            <mxPoint x="186" y="740" as="targetPoint" />
            <Array as="points">
              <mxPoint x="250" y="740" />
              <mxPoint x="260" y="750" />
              <mxPoint x="280" y="750" />
              <mxPoint x="220" y="734" />
            </Array>
            <mxPoint as="offset" />
          </mxGeometry>
        </mxCell>
        <mxCell id="a20nSgyE2VclxuOLMxw--87" value="" style="html=1;points=[];perimeter=orthogonalPerimeter;outlineConnect=0;targetShapes=umlLifeline;portConstraint=eastwest;newEdgeStyle={&quot;edgeStyle&quot;:&quot;elbowEdgeStyle&quot;,&quot;elbow&quot;:&quot;vertical&quot;,&quot;curved&quot;:0,&quot;rounded&quot;:0};" parent="1" vertex="1">
          <mxGeometry x="365" y="827.5" width="10" height="29.5" as="geometry" />
        </mxCell>
        <mxCell id="a20nSgyE2VclxuOLMxw--88" style="edgeStyle=elbowEdgeStyle;rounded=0;orthogonalLoop=1;jettySize=auto;html=1;elbow=vertical;curved=0;" parent="1" source="a20nSgyE2VclxuOLMxw--91" target="a20nSgyE2VclxuOLMxw--87" edge="1">
          <mxGeometry relative="1" as="geometry">
            <Array as="points">
              <mxPoint x="200" y="830" />
              <mxPoint x="300" y="820" />
              <mxPoint x="200" y="820" />
            </Array>
          </mxGeometry>
        </mxCell>
        <mxCell id="a20nSgyE2VclxuOLMxw--89" value="getAllTransactionsOfMonth()" style="edgeLabel;html=1;align=center;verticalAlign=middle;resizable=0;points=[];" parent="a20nSgyE2VclxuOLMxw--88" vertex="1" connectable="0">
          <mxGeometry x="0.0561" relative="1" as="geometry">
            <mxPoint x="11" y="-10" as="offset" />
          </mxGeometry>
        </mxCell>
        <mxCell id="a20nSgyE2VclxuOLMxw--90" value="" style="endArrow=classic;html=1;rounded=0;" parent="1" target="a20nSgyE2VclxuOLMxw--91" edge="1">
          <mxGeometry width="50" height="50" relative="1" as="geometry">
            <mxPoint x="180" y="800" as="sourcePoint" />
            <mxPoint x="450" y="930" as="targetPoint" />
            <Array as="points">
              <mxPoint x="210" y="800" />
              <mxPoint x="210" y="820" />
            </Array>
          </mxGeometry>
        </mxCell>
        <mxCell id="a20nSgyE2VclxuOLMxw--91" value="" style="html=1;points=[];perimeter=orthogonalPerimeter;outlineConnect=0;targetShapes=umlLifeline;portConstraint=eastwest;newEdgeStyle={&quot;edgeStyle&quot;:&quot;elbowEdgeStyle&quot;,&quot;elbow&quot;:&quot;vertical&quot;,&quot;curved&quot;:0,&quot;rounded&quot;:0};" parent="1" vertex="1">
          <mxGeometry x="176" y="820" width="10" height="90" as="geometry" />
        </mxCell>
        <mxCell id="a20nSgyE2VclxuOLMxw--92" value="" style="html=1;verticalAlign=bottom;endArrow=open;dashed=1;endSize=8;edgeStyle=elbowEdgeStyle;elbow=vertical;curved=0;rounded=0;" parent="1" source="a20nSgyE2VclxuOLMxw--87" edge="1">
          <mxGeometry x="0.1831" relative="1" as="geometry">
            <mxPoint x="266" y="855" as="sourcePoint" />
            <mxPoint x="186" y="856" as="targetPoint" />
            <Array as="points">
              <mxPoint x="260" y="856" />
              <mxPoint x="280" y="856" />
              <mxPoint x="220" y="840" />
            </Array>
            <mxPoint as="offset" />
          </mxGeometry>
        </mxCell>
        <mxCell id="a20nSgyE2VclxuOLMxw--93" style="edgeStyle=elbowEdgeStyle;rounded=0;orthogonalLoop=1;jettySize=auto;html=1;elbow=vertical;curved=0;" parent="1" edge="1">
          <mxGeometry relative="1" as="geometry">
            <mxPoint x="186" y="880" as="sourcePoint" />
            <mxPoint x="510" y="880" as="targetPoint" />
            <Array as="points">
              <mxPoint x="200" y="880" />
              <mxPoint x="300" y="870" />
              <mxPoint x="200" y="870" />
            </Array>
          </mxGeometry>
        </mxCell>
        <mxCell id="a20nSgyE2VclxuOLMxw--94" value="printMessage(:String)" style="edgeLabel;html=1;align=center;verticalAlign=middle;resizable=0;points=[];" parent="a20nSgyE2VclxuOLMxw--93" vertex="1" connectable="0">
          <mxGeometry x="0.0561" relative="1" as="geometry">
            <mxPoint x="11" y="-10" as="offset" />
          </mxGeometry>
        </mxCell>
        <mxCell id="a20nSgyE2VclxuOLMxw--95" value="" style="html=1;verticalAlign=bottom;endArrow=open;dashed=1;endSize=8;edgeStyle=elbowEdgeStyle;elbow=vertical;curved=0;rounded=0;" parent="1" edge="1">
          <mxGeometry x="0.1831" relative="1" as="geometry">
            <mxPoint x="510" y="890" as="sourcePoint" />
            <mxPoint x="186" y="890" as="targetPoint" />
            <Array as="points">
              <mxPoint x="250" y="890" />
              <mxPoint x="260" y="900" />
              <mxPoint x="280" y="900" />
              <mxPoint x="220" y="884" />
            </Array>
            <mxPoint as="offset" />
          </mxGeometry>
        </mxCell>
        <mxCell id="a20nSgyE2VclxuOLMxw--97" value="" style="endArrow=none;dashed=1;html=1;rounded=0;entryX=0.001;entryY=0.208;entryDx=0;entryDy=0;entryPerimeter=0;exitX=1.001;exitY=0.209;exitDx=0;exitDy=0;exitPerimeter=0;" parent="1" source="a20nSgyE2VclxuOLMxw--10" target="a20nSgyE2VclxuOLMxw--10" edge="1">
          <mxGeometry width="50" height="50" relative="1" as="geometry">
            <mxPoint x="629" y="490" as="sourcePoint" />
            <mxPoint x="48" y="491" as="targetPoint" />
          </mxGeometry>
        </mxCell>
        <mxCell id="a20nSgyE2VclxuOLMxw--98" value="" style="endArrow=none;dashed=1;html=1;rounded=0;entryX=0.001;entryY=0.586;entryDx=0;entryDy=0;entryPerimeter=0;exitX=1;exitY=0.587;exitDx=0;exitDy=0;exitPerimeter=0;" parent="1" source="a20nSgyE2VclxuOLMxw--10" target="a20nSgyE2VclxuOLMxw--10" edge="1">
          <mxGeometry width="50" height="50" relative="1" as="geometry">
            <mxPoint x="629" y="490" as="sourcePoint" />
            <mxPoint x="48" y="491" as="targetPoint" />
          </mxGeometry>
        </mxCell>
        <mxCell id="a20nSgyE2VclxuOLMxw--99" value="" style="endArrow=none;dashed=1;html=1;rounded=0;entryX=-0.003;entryY=0.759;entryDx=0;entryDy=0;entryPerimeter=0;exitX=0.999;exitY=0.759;exitDx=0;exitDy=0;exitPerimeter=0;" parent="1" source="a20nSgyE2VclxuOLMxw--10" target="a20nSgyE2VclxuOLMxw--10" edge="1">
          <mxGeometry width="50" height="50" relative="1" as="geometry">
            <mxPoint x="630" y="651" as="sourcePoint" />
            <mxPoint x="51" y="650" as="targetPoint" />
          </mxGeometry>
        </mxCell>
        <mxCell id="a20nSgyE2VclxuOLMxw--100" value="[flag == CURR_FLAG]" style="text;html=1;align=center;verticalAlign=middle;resizable=0;points=[];autosize=1;strokeColor=none;fillColor=none;" parent="1" vertex="1">
          <mxGeometry x="36" y="487.5" width="140" height="30" as="geometry" />
        </mxCell>
        <mxCell id="a20nSgyE2VclxuOLMxw--101" value="[flag == DATE_FLAG]" style="text;html=1;align=center;verticalAlign=middle;resizable=0;points=[];autosize=1;strokeColor=none;fillColor=none;" parent="1" vertex="1">
          <mxGeometry x="30" y="640" width="140" height="30" as="geometry" />
        </mxCell>
        <mxCell id="a20nSgyE2VclxuOLMxw--102" value="[flag == MONTH_FLAG]" style="text;html=1;align=center;verticalAlign=middle;resizable=0;points=[];autosize=1;strokeColor=none;fillColor=none;" parent="1" vertex="1">
          <mxGeometry x="31" y="797.5" width="150" height="30" as="geometry" />
        </mxCell>
        <mxCell id="a20nSgyE2VclxuOLMxw--103" value="" style="html=1;points=[];perimeter=orthogonalPerimeter;outlineConnect=0;targetShapes=umlLifeline;portConstraint=eastwest;newEdgeStyle={&quot;edgeStyle&quot;:&quot;elbowEdgeStyle&quot;,&quot;elbow&quot;:&quot;vertical&quot;,&quot;curved&quot;:0,&quot;rounded&quot;:0};" parent="1" vertex="1">
          <mxGeometry x="510" y="730" width="10" height="10" as="geometry" />
        </mxCell>
        <mxCell id="a20nSgyE2VclxuOLMxw--104" value="" style="html=1;points=[];perimeter=orthogonalPerimeter;outlineConnect=0;targetShapes=umlLifeline;portConstraint=eastwest;newEdgeStyle={&quot;edgeStyle&quot;:&quot;elbowEdgeStyle&quot;,&quot;elbow&quot;:&quot;vertical&quot;,&quot;curved&quot;:0,&quot;rounded&quot;:0};" parent="1" vertex="1">
          <mxGeometry x="510" y="880" width="10" height="10" as="geometry" />
        </mxCell>
        <mxCell id="a20nSgyE2VclxuOLMxw--105" style="edgeStyle=elbowEdgeStyle;rounded=0;orthogonalLoop=1;jettySize=auto;html=1;elbow=vertical;curved=0;" parent="1" edge="1">
          <mxGeometry relative="1" as="geometry">
            <mxPoint x="180" y="1080" as="sourcePoint" />
            <mxPoint x="510" y="1080" as="targetPoint" />
            <Array as="points">
              <mxPoint x="200" y="1080" />
              <mxPoint x="300" y="1070" />
              <mxPoint x="200" y="1070" />
            </Array>
          </mxGeometry>
        </mxCell>
        <mxCell id="a20nSgyE2VclxuOLMxw--106" value="printMessage(:String)" style="edgeLabel;html=1;align=center;verticalAlign=middle;resizable=0;points=[];" parent="a20nSgyE2VclxuOLMxw--105" vertex="1" connectable="0">
          <mxGeometry x="0.0561" relative="1" as="geometry">
            <mxPoint x="11" y="-10" as="offset" />
          </mxGeometry>
        </mxCell>
        <mxCell id="a20nSgyE2VclxuOLMxw--107" value="" style="html=1;verticalAlign=bottom;endArrow=open;dashed=1;endSize=8;edgeStyle=elbowEdgeStyle;elbow=vertical;curved=0;rounded=0;" parent="1" edge="1">
          <mxGeometry x="0.1831" relative="1" as="geometry">
            <mxPoint x="510" y="1090" as="sourcePoint" />
            <mxPoint x="180" y="1090" as="targetPoint" />
            <Array as="points">
              <mxPoint x="250" y="1090" />
              <mxPoint x="260" y="1100" />
              <mxPoint x="280" y="1100" />
              <mxPoint x="220" y="1084" />
            </Array>
            <mxPoint as="offset" />
          </mxGeometry>
        </mxCell>
        <mxCell id="a20nSgyE2VclxuOLMxw--108" value="" style="html=1;points=[];perimeter=orthogonalPerimeter;outlineConnect=0;targetShapes=umlLifeline;portConstraint=eastwest;newEdgeStyle={&quot;edgeStyle&quot;:&quot;elbowEdgeStyle&quot;,&quot;elbow&quot;:&quot;vertical&quot;,&quot;curved&quot;:0,&quot;rounded&quot;:0};" parent="1" vertex="1">
          <mxGeometry x="510" y="1080" width="10" height="10" as="geometry" />
        </mxCell>
        <mxCell id="SmZIZ6ZhfoR9nc0BJCIU-1" value="" style="endArrow=classic;html=1;rounded=0;dashed=1;" parent="1" edge="1">
          <mxGeometry width="50" height="50" relative="1" as="geometry">
            <mxPoint x="186" y="250" as="sourcePoint" />
            <mxPoint x="180" y="270" as="targetPoint" />
            <Array as="points">
              <mxPoint x="216" y="250" />
              <mxPoint x="216" y="270" />
            </Array>
          </mxGeometry>
        </mxCell>
        <mxCell id="SmZIZ6ZhfoR9nc0BJCIU-2" value="" style="endArrow=classic;html=1;rounded=0;dashed=1;" parent="1" edge="1">
          <mxGeometry width="50" height="50" relative="1" as="geometry">
            <mxPoint x="187" y="440" as="sourcePoint" />
            <mxPoint x="181" y="460" as="targetPoint" />
            <Array as="points">
              <mxPoint x="217" y="440" />
              <mxPoint x="217" y="460" />
            </Array>
          </mxGeometry>
        </mxCell>
        <mxCell id="SmZIZ6ZhfoR9nc0BJCIU-3" value="" style="endArrow=classic;html=1;rounded=0;dashed=1;" parent="1" edge="1">
          <mxGeometry width="50" height="50" relative="1" as="geometry">
            <mxPoint x="187" y="600" as="sourcePoint" />
            <mxPoint x="181" y="620" as="targetPoint" />
            <Array as="points">
              <mxPoint x="217" y="600" />
              <mxPoint x="217" y="620" />
            </Array>
          </mxGeometry>
        </mxCell>
        <mxCell id="SmZIZ6ZhfoR9nc0BJCIU-4" value="" style="endArrow=classic;html=1;rounded=0;dashed=1;" parent="1" edge="1">
          <mxGeometry width="50" height="50" relative="1" as="geometry">
            <mxPoint x="187" y="760" as="sourcePoint" />
            <mxPoint x="181" y="780" as="targetPoint" />
            <Array as="points">
              <mxPoint x="217" y="760" />
              <mxPoint x="217" y="780" />
            </Array>
          </mxGeometry>
        </mxCell>
        <mxCell id="SmZIZ6ZhfoR9nc0BJCIU-5" value="" style="endArrow=classic;html=1;rounded=0;dashed=1;" parent="1" edge="1">
          <mxGeometry width="50" height="50" relative="1" as="geometry">
            <mxPoint x="187" y="910" as="sourcePoint" />
            <mxPoint x="181" y="930" as="targetPoint" />
            <Array as="points">
              <mxPoint x="217" y="910" />
              <mxPoint x="217" y="930" />
            </Array>
          </mxGeometry>
        </mxCell>
        <mxCell id="bTzjy04AMo9qSSuRQ4v_-1" value="" style="html=1;verticalAlign=bottom;endArrow=open;dashed=1;endSize=8;edgeStyle=elbowEdgeStyle;elbow=vertical;curved=0;rounded=0;" edge="1" parent="1">
          <mxGeometry x="0.1831" relative="1" as="geometry">
            <mxPoint x="176" y="1150" as="sourcePoint" />
            <mxPoint x="-84" y="1150" as="targetPoint" />
            <Array as="points">
              <mxPoint x="-84" y="1150" />
              <mxPoint x="-74" y="1160" />
              <mxPoint x="-54" y="1160" />
              <mxPoint x="-114" y="1144" />
            </Array>
            <mxPoint as="offset" />
          </mxGeometry>
        </mxCell>
      </root>
    </mxGraphModel>
  </diagram>
</mxfile>
